# Blender v2.90.0 OBJ File: ''
# www.blender.org
mtllib garage.mtl
o Cube_Cube.001
v -0.195611 -0.100000 -0.106421
v -0.195611 -0.100000 -0.000000
v -0.195611 -0.100000 0.037247
v -0.195611 -0.100000 0.106421
v -0.195611 0.100000 0.106421
v -0.195611 0.100000 -0.106421
v -0.105611 -0.100000 0.106421
v -0.105611 0.100000 0.106421
v -0.105611 0.100000 -0.106421
v 0.194389 0.100000 -0.106421
v 0.194389 -0.100000 -0.106421
v -0.105611 -0.100000 -0.106421
v -0.105611 -0.100000 -0.069174
v -0.105611 -0.100000 -0.000000
v -0.105611 -0.100000 0.069174
v -0.105611 0.100000 0.069174
v -0.105611 0.100000 0.000000
v -0.105611 0.100000 -0.069174
v 0.194389 0.100000 0.069174
v 0.194389 -0.100000 0.069174
v 0.194389 -0.100000 0.106421
v 0.194389 0.100000 0.106421
v 0.194389 -0.100000 -0.069174
v 0.194389 0.100000 -0.069174
v -0.105611 -0.100000 0.106421
v -0.105611 0.100000 0.106421
v -0.105611 0.100000 0.069174
v -0.105611 -0.100000 0.069174
vt 0.375000 0.000000
vt 0.375000 0.125000
vt 0.375000 0.168750
vt 0.375000 0.250000
vt 0.625000 0.250000
vt 0.625000 0.000000
vt 0.375000 0.500000
vt 0.625000 0.500000
vt 0.625000 0.750000
vt 0.625000 0.750000
vt 0.375000 0.750000
vt 0.375000 0.750000
vt 0.375000 1.000000
vt 0.625000 1.000000
vt 0.125000 0.500000
vt 0.125000 0.581250
vt 0.125000 0.625000
vt 0.125000 0.750000
vt 0.375000 0.706250
vt 0.375000 0.625000
vt 0.375000 0.543750
vt 0.625000 0.543750
vt 0.625000 0.625000
vt 0.625000 0.706250
vt 0.875000 0.750000
vt 0.875000 0.500000
vt 0.625000 0.543750
vt 0.375000 0.543750
vt 0.375000 0.500000
vt 0.625000 0.500000
vt 0.375000 0.706250
vt 0.625000 0.706250
vn -1.0000 0.0000 0.0000
vn 0.0000 -0.0000 1.0000
vn 0.0000 0.0000 -1.0000
vn -0.0000 -1.0000 -0.0000
vn 0.0000 1.0000 0.0000
vn 1.0000 0.0000 0.0000
usemtl None.001
s 1
f 1/1/1 2/2/1 3/3/1 4/4/1 5/5/1 6/6/1
f 4/4/2 7/7/2 8/8/2 5/5/2
f 9/9/3 10/10/3 11/11/3 12/12/3
f 12/12/3 1/13/3 6/14/3 9/9/3
f 4/15/4 3/16/4 2/17/4 1/18/4 12/12/4 13/19/4 14/20/4 15/21/4 7/7/4
f 8/8/5 16/22/5 17/23/5 18/24/5 9/9/5 6/25/5 5/26/5
f 16/22/3 19/27/3 20/28/3 15/21/3
f 15/21/6 14/20/6 13/19/6 18/24/6 17/23/6 16/22/6
f 21/29/6 20/28/6 19/27/6 22/30/6
f 8/8/5 22/30/5 19/27/5 16/22/5
f 7/7/2 21/29/2 22/30/2 8/8/2
f 15/21/4 20/28/4 21/29/4 7/7/4
f 23/31/6 11/11/6 10/10/6 24/32/6
f 12/12/4 11/11/4 23/31/4 13/19/4
f 18/24/5 24/32/5 10/10/5 9/9/5
f 13/19/2 23/31/2 24/32/2 18/24/2
l 15 28
l 16 27
l 8 26
l 7 25
